<svg width="22" height="17" viewBox="0 0 22 17" fill="none" xmlns="http://www.w3.org/2000/svg">
<rect width="21.25" height="17" rx="3" fill="#00331E"/>
<rect x="2.125" y="2.125" width="17" height="12.75" rx="3" fill="#FF8058"/>
<path d="M3.1875 14.875C2.90571 14.875 2.63546 14.7631 2.4362 14.5638C2.23694 14.3645 2.125 14.0943 2.125 13.8125V11.2413L5.63125 7.74563C5.82986 7.55095 6.09689 7.4419 6.375 7.4419C6.65311 7.4419 6.92014 7.55095 7.11875 7.74563L14.2481 14.875H3.1875ZM19.125 13.8125C19.125 14.0943 19.0131 14.3645 18.8138 14.5638C18.6145 14.7631 18.3443 14.875 18.0625 14.875H17.2444L13.1962 10.8056L14.1313 9.87063C14.3299 9.67595 14.5969 9.5669 14.875 9.5669C15.1531 9.5669 15.4201 9.67595 15.6188 9.87063L19.125 13.3663V13.8125ZM19.125 10.37L17.1275 8.38313C16.5219 7.80134 15.7148 7.47642 14.875 7.47642C14.0352 7.47642 13.2281 7.80134 12.6225 8.38313L11.6875 9.31813L8.6275 6.25813C8.02194 5.67634 7.21475 5.35142 6.375 5.35142C5.53525 5.35142 4.72806 5.67634 4.1225 6.25813L2.125 8.245V3.1875C2.125 2.90571 2.23694 2.63546 2.4362 2.4362C2.63546 2.23694 2.90571 2.125 3.1875 2.125H18.0625C18.3443 2.125 18.6145 2.23694 18.8138 2.4362C19.0131 2.63546 19.125 2.90571 19.125 3.1875V10.37Z" fill="#00331E"/>
</svg>
