<svg width="25" height="18" viewBox="0 0 25 18" fill="none" xmlns="http://www.w3.org/2000/svg">
<path d="M24.5858 6.09002C24.6411 4.49107 24.2914 2.9041 23.5693 1.47644C23.0793 0.890635 22.3994 0.49531 21.6479 0.359349C18.5396 0.0773121 15.4185 -0.0382855 12.2978 0.0130513C9.18858 -0.0406156 6.07867 0.0712518 2.98131 0.348178C2.36894 0.45957 1.80224 0.746802 1.35036 1.17482C0.344975 2.10201 0.233266 3.68827 0.121557 5.02878C-0.040519 7.43897 -0.040519 9.85733 0.121557 12.2675C0.153875 13.022 0.266213 13.7709 0.456684 14.5017C0.591377 15.0659 0.863888 15.5879 1.24982 16.0209C1.70477 16.4716 2.28467 16.7752 2.91428 16.8923C5.32263 17.1895 7.74929 17.3127 10.1754 17.2609C14.0852 17.3168 17.5146 17.2609 21.5697 16.9481C22.2147 16.8382 22.811 16.5343 23.2788 16.0768C23.5916 15.7639 23.8252 15.381 23.9602 14.9597C24.3597 13.7338 24.556 12.4508 24.5411 11.1616C24.5858 10.536 24.5858 6.76027 24.5858 6.09002ZM9.77321 11.8319V4.91707L16.3864 8.39122C14.532 9.41894 12.0856 10.5807 9.77321 11.8319Z" fill="#00331E"/>
</svg>
